<svg xmlns="http://www.w3.org/2000/svg" aria-hidden="true" style="width:0;height:0;position:absolute;overflow:hidden"><defs><symbol id="icon-uparrow" viewBox="0 0 32 32"><path fill="#6ac259" style="fill:var(--color1,#6ac259)" d="M16 32a3.692 3.692 0 0 1-3.692-3.692V3.693a3.692 3.692 0 0 1 7.384 0v24.615A3.692 3.692 0 0 1 16 32z"/><path fill="#6ac259" style="fill:var(--color1,#6ac259)" d="M28.308 19.692a3.68 3.68 0 0 1-2.611-1.081L16 8.914l-9.697 9.697a3.693 3.693 0 0 1-5.222-5.222L13.388 1.082a3.691 3.691 0 0 1 5.221 0l12.308 12.307a3.693 3.693 0 0 1-2.611 6.303z"/></symbol><symbol id="icon-icon-footer-youtube" viewBox="0 0 32 32"><path d="M24.24 6c-1.36-.08-4.16-.16-8.4-.16h-.56c-4.08 0-6.8.08-8.16.24-1.84.16-3.12.64-3.84 1.28-.64.56-1.12 1.6-1.28 2.96-.08.88-.16 2.72-.16 5.52v.4c0 2.64.08 4.48.24 5.36.24 1.28.64 2.24 1.44 2.8.8.64 2.16 1.04 4.08 1.2 1.36.08 4.16.16 8.4.16h.56c4.08 0 6.8-.08 8.16-.24 1.84-.16 3.12-.64 3.84-1.28.64-.56 1.12-1.6 1.28-2.96.08-.88.16-2.72.16-5.52v-.4c0-2.64-.08-4.48-.24-5.36-.24-1.28-.64-2.24-1.44-2.8-.8-.64-2.16-1.04-4.08-1.2zm-3.12 9.84-8.8 5.28V10.56l8.8 5.28z"/></symbol></defs></svg>