<svg xmlns="http://www.w3.org/2000/svg" aria-hidden="true" style="position: absolute; width: 0; height: 0; overflow: hidden;">
  <defs>    
    <symbol id="icon-uparrow" viewBox="0 0 32 32">
      <path fill="#6ac259" style="fill: var(--color1, #6ac259)" d="M16 32c-2.039 0-3.692-1.653-3.692-3.692v-24.615c0-2.039 1.653-3.692 3.692-3.692s3.692 1.653 3.692 3.692v24.615c0 2.039-1.653 3.692-3.692 3.692z"></path>
      <path fill="#6ac259" style="fill: var(--color1, #6ac259)" d="M28.308 19.692c-0.945 0-1.89-0.36-2.611-1.081l-9.697-9.697-9.697 9.697c-1.442 1.442-3.78 1.442-5.222 0s-1.442-3.78 0-5.222l12.307-12.307c1.442-1.442 3.78-1.442 5.221 0l12.308 12.307c1.442 1.442 1.442 3.78 0 5.222-0.721 0.721-1.666 1.081-2.611 1.081z"></path>
    </symbol>





    <symbol id="icon-icon-footer-youtube" viewBox="0 0 32 32">
<path d="M24.24 6c-1.36-0.080-4.16-0.16-8.4-0.16h-0.56c-4.080 0-6.8 0.080-8.16 0.24-1.84 0.16-3.12 0.64-3.84 1.28-0.64 0.56-1.12 1.6-1.28 2.96-0.080 0.88-0.16 2.72-0.16 5.52v0.4c0 2.64 0.080 4.48 0.24 5.36 0.24 1.28 0.64 2.24 1.44 2.8 0.8 0.64 2.16 1.040 4.080 1.2 1.36 0.080 4.16 0.16 8.4 0.16h0.56c4.080 0 6.8-0.080 8.16-0.24 1.84-0.16 3.12-0.64 3.84-1.28 0.64-0.56 1.12-1.6 1.28-2.96 0.080-0.88 0.16-2.72 0.16-5.52v-0.4c0-2.64-0.080-4.48-0.24-5.36-0.24-1.28-0.64-2.24-1.44-2.8-0.8-0.64-2.16-1.040-4.080-1.2zM21.12 15.84l-8.8 5.28v-10.56l8.8 5.28z"></path>
</symbol>
  </defs>
</svg>
